<svg version="1" xmlns="http://www.w3.org/2000/svg" width="346.667" height="346.667" viewBox="0 0 260.000000 260.000000"><path d="M116.9.4c-.2.2-2.4.6-4.9 1-9.3 1.2-11.7 1.8-21 4.7-47.8 15.2-82.5 56-89.7 105.4-1.5 10.1-.9 34.2 1.1 43.5 2 9.2 2.8 12.7 3.6 14.5.4 1.1 2.3 5.7 4 10.3 15.1 38.7 51.6 68.7 95 77.9 13 2.7 38.2 2.4 51.8-.6 10.1-2.2 23.3-6.8 32-11.1 23.3-11.5 45.3-33.7 57-57.4 10.6-21.5 14.2-37.6 13.7-61.1-.3-15.1-.5-16.4-3-27-2.1-8.7-2-8.6-2.9-11-.5-1.1-1.3-3.4-1.8-5-2.8-8-11.5-24-17.3-31.7-21-28-49.9-45.5-85-51.5-3.5-.6-32.1-1.4-32.6-.9z"/></svg>